<svg width="28" height="30" viewBox="0 0 28 30" fill="none" xmlns="http://www.w3.org/2000/svg">
    <path
        d="M24.3257 15.0003V8.1374C24.3257 5.61058 22.4138 3.56216 20.0555 3.56216H7.59478C5.23639 3.56216 3.32455 5.61056 3.32455 8.1374V21.8631C3.32455 24.39 5.23639 26.4384 7.59478 26.4384H13.8251"
        stroke="#1C1C1C" stroke-width="3" stroke-linecap="round" />
    <path d="M8.1698 15H11.6688" stroke="#1C1C1C" stroke-width="3" stroke-linecap="round" />
    <path d="M8.1698 10.0027H15.1658" stroke="#1C1C1C" stroke-width="3" stroke-linecap="round" />
    <path
        d="M24.255 19.8534L21.9764 17.3714C21.7454 17.1196 21.3706 17.1196 21.1395 17.3714L16.7571 22.145C16.6302 22.2832 16.5678 22.4766 16.5873 22.671L16.8379 25.1654C16.8531 25.3156 16.9619 25.4342 17.0998 25.4506L19.3898 25.7236C19.5681 25.7449 19.7457 25.6769 19.8726 25.5387L24.255 20.765C24.4861 20.5132 24.4861 20.1051 24.255 19.8534Z"
        stroke="#DF1463" stroke-width="3" stroke-linecap="round" />
</svg>